Coordinates
nRows=6
nColumns=34

# SIMM Motion File Header:
name Coordinates
datacolumns 34
datarows 6
otherdata 1
range 0.30000000 0.30500000

Units are S.I. units (second, meters, Newtons, ...)
Angles are in degrees.

endheader
time	pelvis_tz	pelvis_tx	pelvis_ty	pelvis_tilt	pelvis_list	pelvis_rotation	hip_flexion_r	hip_adduction_r	hip_rotation_r	knee_r_tx	knee_r_ty	knee_angle_r	tib_pat_r_tx	tib_pat_r_ty	tib_pat_r_r1	ankle_angle_r	subtalar_angle_r	mtp_angle_r	hip_flexion_l	hip_adduction_l	hip_rotation_l	knee_l_tx	knee_l_ty	knee_angle_l	tib_pat_l_tx	tib_pat_l_ty	tib_pat_l_r1	ankle_angle_l	subtalar_angle_l	mtp_angle_l	lumbar_extension	lumbar_bending	lumbar_rotation
      0.30000000	     -0.24236019	      0.14768871	      0.93015365	     -1.85394567	      2.35817286	     -2.47650446	      2.17882158	      0.52441476	     16.42600598	     -0.00403724	     -0.41353482	     -5.29941342	      0.04599330	     -0.02109574	      5.53019289	      8.09430463	     -0.00000000	     -0.00000000	     17.52029455	     -1.16277913	     -7.33005133	      0.00418886	     -0.42284233	    -58.58362959	      0.03599208	     -0.01912846	     17.36597883	      0.85229377	      0.00000000	      0.00000000	     -1.97241543	      0.30312519	      3.06844154
      0.30100000	     -0.24227112	      0.14861631	      0.93019112	     -1.84594498	      2.40002868	     -2.49254793	      2.09467716	      0.48021632	     16.44057273	     -0.00404179	     -0.41353230	     -5.26853477	      0.04599745	     -0.02109715	      5.50253838	      8.13875387	     -0.00000000	     -0.00000000	     17.61574324	     -1.13970133	     -7.38135763	      0.00417956	     -0.42280577	    -58.44738227	      0.03602536	     -0.01913263	     17.36278022	      0.95624849	      0.00000000	      0.00000000	     -1.98899763	      0.24685688	      3.09119817
      0.30200000	     -0.24218390	      0.14954343	      0.93022699	     -1.83797051	      2.44124862	     -2.50824310	      2.01058341	      0.43651987	     16.45443817	     -0.00404632	     -0.41352978	     -5.23774161	      0.04600157	     -0.02109854	      5.47490602	      8.18309748	     -0.00000000	     -0.00000000	     17.71053293	     -1.11692832	     -7.43246134	      0.00416999	     -0.42276859	    -58.30868548	      0.03605921	     -0.01913689	     17.35948388	      1.05837499	      0.00000000	      0.00000000	     -2.00563067	      0.19152474	      3.11330803
      0.30300000	     -0.24209856	      0.15047009	      0.93026124	     -1.83002600	      2.48181647	     -2.52358738	      1.92654476	      0.39334400	     16.46760345	     -0.00405083	     -0.41352727	     -5.20703875	      0.04600567	     -0.02109993	      5.44730055	      8.22734013	     -0.00000000	     -0.00000000	     17.80466668	     -1.09446995	     -7.48334919	      0.00416014	     -0.42273082	    -58.16755899	      0.03609361	     -0.01914122	     17.35608787	      1.15868068	      0.00000000	      0.00000000	     -2.02231267	      0.13714988	      3.13477540
      0.30400000	     -0.24201512	      0.15139628	      0.93029385	     -1.82211518	      2.52171626	     -2.53857837	      1.84256573	      0.35070708	     16.48007028	     -0.00405531	     -0.41352477	     -5.17643104	      0.04600973	     -0.02110131	      5.41972675	      8.27148661	     -0.00000000	     -0.00000000	     17.89814753	     -1.07233578	     -7.53400774	      0.00415001	     -0.42269245	    -58.02402221	      0.03612857	     -0.01914563	     17.35259021	      1.25717392	      0.00000000	      0.00000000	     -2.03904178	      0.08375304	      3.15560498
      0.30500000	     -0.24193358	      0.15232201	      0.93032478	     -1.81424178	      2.56093231	     -2.55321384	      1.75865082	      0.30862731	     16.49184086	     -0.00405977	     -0.41352227	     -5.14592330	      0.04601378	     -0.02110269	      5.39218943	      8.31554187	     -0.00000000	     -0.00000000	     17.99097853	     -1.05053505	     -7.58442339	      0.00413960	     -0.42265349	    -57.87809417	      0.03616408	     -0.01915012	     17.34898884	      1.35386396	      0.00000000	      0.00000000	     -2.05581614	      0.03135456	      3.17580180
